<svg xmlns:xlink="http://www.w3.org/1999/xlink" xmlns="http://www.w3.org/2000/svg" version="1.1" viewBox="0 0 120 120" height="120px" width="120px">
    <title>搜索为空</title>
    <defs>
        <rect height="120" width="120" y="0" x="0" id="path-1"></rect>
        <linearGradient id="linearGradient-3" y2="3.44169138e-13%" x2="50%" y1="100%" x1="49.9999926%">
            <stop offset="0%" stop-opacity="0" stop-color="#FFFFFF"></stop>
            <stop offset="41%" stop-opacity="0.14" stop-color="#FBFBFC"></stop>
            <stop offset="66%" stop-opacity="0.48" stop-color="#F0F1F3"></stop>
            <stop offset="100%" stop-color="#DFE1E6"></stop>
        </linearGradient>
        <linearGradient id="linearGradient-4" y2="49.9953605%" x2="0%" y1="49.9953605%" x1="100%">
            <stop offset="27%" stop-color="#E9EBF0"></stop>
            <stop offset="89%" stop-color="#CACCD2"></stop>
            <stop offset="100%" stop-color="#C4C6CC"></stop>
        </linearGradient>
        <linearGradient id="linearGradient-5" y2="50%" x2="100%" y1="50%" x1="0%">
            <stop offset="27%" stop-color="#FFFFFF"></stop>
            <stop offset="67%" stop-color="#E5E5E5"></stop>
            <stop offset="100%" stop-color="#E5E5E5"></stop>
        </linearGradient>
        <linearGradient id="linearGradient-6" y2="49.9951621%" x2="0%" y1="49.9951621%" x1="100%">
            <stop offset="0%" stop-color="#DFE1E6"></stop>
            <stop offset="100%" stop-color="#D1D3D8"></stop>
        </linearGradient>
        <linearGradient id="linearGradient-7" y2="50%" x2="0%" y1="50%" x1="100%">
            <stop offset="27%" stop-color="#FFFFFF"></stop>
            <stop offset="67%" stop-color="#E5E5E5"></stop>
            <stop offset="100%" stop-color="#E5E5E5"></stop>
        </linearGradient>
        <linearGradient id="linearGradient-8" y2="50%" x2="100.016664%" y1="50%" x1="0%">
            <stop offset="27%" stop-color="#DFE1E6"></stop>
            <stop offset="89%" stop-color="#D1D3D8"></stop>
            <stop offset="100%" stop-color="#C4C6CC"></stop>
        </linearGradient>
        <linearGradient id="linearGradient-9" y2="50%" x2="100%" y1="50%" x1="0%">
            <stop offset="27%" stop-color="#E5E5E5"></stop>
            <stop offset="88%" stop-color="#C6C7CE"></stop>
            <stop offset="89%" stop-color="#C6C7CE"></stop>
            <stop offset="100%" stop-color="#C6C7CE"></stop>
        </linearGradient>
        <linearGradient id="linearGradient-10" y2="64.844751%" x2="41.8494865%" y1="34.859469%" x1="69.22116%">
            <stop offset="0%" stop-color="#E9EBF0"></stop>
            <stop offset="85%" stop-color="#CACCD2"></stop>
            <stop offset="100%" stop-color="#C4C6CC"></stop>
        </linearGradient>
        <linearGradient id="linearGradient-11" y2="49.8980579%" x2="100.151362%" y1="49.8980579%" x1="0.100908174%">
            <stop offset="0%" stop-color="#FDB65B"></stop>
            <stop offset="100%" stop-color="#FD9357"></stop>
        </linearGradient>
    </defs>
    <g fill-rule="evenodd" fill="none" stroke-width="1" stroke="none" id="搜索为空">
        <g id="分组-3-copy-2">
            <mask fill="white" id="mask-2">
                <use xlink:href="#path-1"></use>
            </mask>
            <g fill-rule="nonzero" id="Mask"></g>
            <g mask="url(#mask-2)" id="分组-18-copy">
                <g transform="translate(0.000000, 7.000000)">
                    <ellipse ry="26" rx="60" cy="107" cx="60" fill-rule="nonzero" fill="url(#linearGradient-3)" id="椭圆形"></ellipse>
                    <g transform="translate(12.000000, 0.000000)" fill-rule="evenodd" fill="none" stroke-width="1" id="分组-40">
                        <polygon points="84.6311039 35.3086027 49.1134247 42.5033059 49.4140854 96.5545083 84.6311039 86.774031" fill-rule="nonzero" fill="url(#linearGradient-4)" id="路径"></polygon>
                        <polygon points="72.5025624 67.5199595 72.5025624 81.2615017 84.4892828 77.9483011 84.4892828 64.2067589" fill-rule="nonzero" fill="#D1D3D8" id="路径"></polygon>
                        <polygon points="84.6311039 35.3086027 95.8519903 51.6245529 61.4064786 61.9960642 49.1134247 42.5033059" fill-rule="nonzero" fill="url(#linearGradient-5)" id="路径"></polygon>
                        <polygon points="9.56235294 37.8204975 49.1134247 42.5033059 49.4140854 96.5545083 9.88570508 87.904952" fill-rule="nonzero" fill="url(#linearGradient-6)" id="路径"></polygon>
                        <polygon points="9.56235294 37.8204975 0.68435133 54.2046439 40.6779049 61.5868868 49.1134247 42.5033059" fill-rule="nonzero" fill="url(#linearGradient-7)" id="路径"></polygon>
                        <polygon points="43.6050927 30.7735528 43.5426914 41.8440756 9.56235294 37.8204975" fill-rule="nonzero" fill="url(#linearGradient-8)" id="路径"></polygon>
                        <polygon points="84.6311039 35.3086027 49.1134247 42.5033059 43.5426914 41.8440756 43.6050927 30.7735528" fill-rule="nonzero" fill="url(#linearGradient-9)" id="路径"></polygon>
                        <path fill="#C4C6CC" id="路径" d="M65.5476551,29.0004506 C66.1570578,28.4497008 67.0967241,28.4980405 67.6466076,29.108428 L70.1426591,31.8874247 C70.5072551,32.2809775 70.6321032,32.8406988 70.4694032,33.3522893 C70.3067031,33.8638799 69.8816579,34.2480919 69.3570037,34.3578229 C68.8323495,34.4675539 68.2893578,34.285806 67.9359226,33.8821647 L65.4398711,31.103168 C64.8901074,30.4926722 64.9383605,29.5513204 65.5476551,29.0004506 Z"></path>
                        <ellipse ry="14.1677734" rx="14.1310553" cy="20.1271556" cx="57.5721601" transform="translate(57.572160, 20.127156) rotate(-42.000000) translate(-57.572160, -20.127156)" fill-rule="nonzero" fill="#D1D3D8" id="椭圆形"></ellipse>
                        <ellipse ry="11.9304577" rx="11.8998361" cy="20.1498877" cx="57.5721601" transform="translate(57.572160, 20.149888) rotate(-42.000000) translate(-57.572160, -20.149888)" fill-rule="nonzero" fill="#C4C6CC" id="椭圆形"></ellipse>
                        <ellipse ry="11.1865786" rx="11.1560963" cy="20.62898" cx="57.0207508" transform="translate(57.020751, 20.628980) rotate(-42.000000) translate(-57.020751, -20.628980)" fill-rule="nonzero" fill="#FFFFFF" id="椭圆形"></ellipse>
                        <path fill="url(#linearGradient-10)" id="路径" d="M67.3346011,34.4163686 L70.7383078,31.3475378 C71.0177223,31.0934065 71.3867215,30.9613216 71.7636258,30.9805206 C72.1405301,30.9997196 72.4942524,31.168619 72.7464948,31.4498322 L80.2743594,39.8266035 C81.6187193,41.3569558 81.4842365,43.6859081 79.9726964,45.0507575 C78.4611563,46.4156069 76.1349409,46.3085489 74.7546817,44.810612 L67.2211442,36.4338406 C66.6982087,35.844699 66.748921,34.9429409 67.3346011,34.4163686 Z"></path>
                        <ellipse ry="1.82424939" rx="1.82098308" cy="20.9305623" cx="15.3940371" fill-rule="nonzero" fill="#C4C6CC" id="椭圆形"></ellipse>
                        <ellipse ry="1.82424939" rx="1.82098308" cy="20.9305623" cx="24.6067365" fill-rule="nonzero" fill="#C4C6CC" id="椭圆形"></ellipse>
                        <ellipse ry="1.82424939" rx="1.82098308" cy="20.9305623" cx="33.8251088" fill-rule="nonzero" fill="#C4C6CC" id="椭圆形"></ellipse>
                        <path fill-rule="nonzero" fill="#333333" id="路径" d="M34.0860596,98.0036783 L32.1516197,99.9984183 C32.1516197,99.9984183 31.1475262,101.191852 33.2861886,100.794041 C33.2861886,100.794041 35.8332957,100.225739 35.4872522,99.043671 L35.2206285,98.0036783 L34.0860596,98.0036783 Z"></path>
                        <path fill-rule="nonzero" fill="#333333" id="路径" d="M36.1282836,99.0664031 L34.1427881,101.29983 C34.1427881,101.29983 33.0422562,102.652389 35.5269621,102.20343 C35.5269621,102.20343 37.2685254,101.510102 37.7960999,100.39623 C37.906223,99.8888952 37.792503,99.3586307 37.4840935,98.9413766 L36.1282836,99.0664031 Z"></path>
                        <path fill-rule="nonzero" fill="#666666" id="路径" d="M31.4652055,79.8975769 C30.9921744,83.4765642 30.8857276,87.0946305 31.1475262,90.6953147 C31.145889,91.2933053 31.2535573,91.886543 31.4652055,92.4456849 L33.7967446,98.2878293 L35.0164061,98.2878293 L34.0066398,92.3377075 C34.0066398,92.3377075 33.4393554,89.4961975 34.3810475,84.1086947 C34.3810475,84.1086947 35.2263014,83.3130719 35.2830298,84.5349211 C35.2132512,89.5357582 35.4424662,94.536294 35.969444,99.5096786 L37.4557293,99.5096786 L38.5902981,80.4431468 L31.4652055,79.8975769 Z"></path>
                        <path fill-rule="nonzero" fill="#FCD9CB" id="路径" d="M40.7403062,68.9009334 L42.0166962,70.3898846 C42.0166962,70.3898846 42.2265915,71.1343602 42.9130056,70.3898846 L45.5678969,67.9973332 C45.5678969,67.9973332 46.2032554,67.1505632 47.4739726,67.9973332 L48.4667204,68.5315371 C48.4667204,68.5315371 49.3289927,69.0600579 47.7405963,68.9009334 C47.7405963,68.9009334 46.3904593,68.4519748 45.9082675,69.0600579 L42.8108944,73.1234172 C42.6461646,73.3096103 42.4097078,73.4161907 42.1613537,73.4161907 C41.9129997,73.4161907 41.6765428,73.3096103 41.5118131,73.1234172 L39.3901692,70.3614695 L40.7403062,68.9009334 Z"></path>
                        <path fill-rule="nonzero" fill="#FCD9CB" id="路径" d="M30.5632232,69.6169939 L29.4286543,70.9184054 C29.4286543,70.9184054 29.003191,71.3446319 28.6344561,70.7592809 L26.7794359,68.4860729 C26.6175884,68.1464523 26.2453951,67.9611943 25.8774537,68.0371144 L23.8125383,68.1678238 C23.8125383,68.1678238 23.0410314,68.4633408 24.4478969,68.7361258 C25.1058694,68.7577903 25.7240345,69.057106 26.1497502,69.5601637 L28.566382,73.089319 C28.566382,73.089319 29.1336664,73.9645041 29.8654633,73.3280059 L32.1346011,70.5433261 L30.5632232,69.6169939 Z"></path>
                        <ellipse ry="2.7108005" rx="2.22942788" cy="62.3711435" cx="34.7384367" fill-rule="nonzero" fill="#FCD9CB" id="椭圆形"></ellipse>
                        <rect height="3.6257667" width="1.75858179" y="63.4963814" x="34.7384367" fill-rule="nonzero" fill="#FCD9CB" id="矩形"></rect>
                        <path fill-rule="nonzero" fill="#666666" id="路径" d="M31.4652055,59.7967355 C31.4652055,59.7967355 32.2594037,60.3650375 33.3712812,59.4728033 C34.2182054,58.7733311 35.3818668,58.6005466 36.3949073,59.0238448 C37.2749545,59.6994251 37.7806817,60.7549132 37.75639,61.8653547 C37.7243701,62.8031511 37.1204525,63.6248686 36.2360677,63.933974 C36.6274105,63.4257914 36.7860718,62.775558 36.6728767,62.1438227 C36.5165464,61.9988061 36.2805652,61.9822578 36.1055923,62.1040416 C36.1055923,62.1040416 36.627494,60.3991356 34.4774859,60.5525771 C34.4491217,60.5525771 31.7034649,61.3879811 31.4652055,59.7967355 Z"></path>
                        <path fill-rule="nonzero" fill="url(#linearGradient-11)" id="路径" d="M34.3299919,66.0878385 C34.6801349,66.4233374 35.1564247,66.5934193 35.6394568,66.5554452 C36.1224889,66.5174711 36.5664646,66.2750415 36.8600806,65.8889328 C37.9565534,65.5053184 39.1724882,65.9262503 39.798614,66.9061934 L41.2281708,68.78159 C41.2281708,68.78159 40.7913618,70.4864959 39.5263175,70.7308658 L38.7718292,70.0545864 L39.0271072,80.482928 C39.0384867,80.9936965 38.6553128,81.4270881 38.1478163,81.4774564 C36.6672039,81.625215 33.671942,81.7729735 31.4652055,80.8636903 C31.0600216,80.6945785 30.8149895,80.2777399 30.863884,79.8407467 L31.8906688,70.9297715 L29.9845931,69.5772127 L31.6864464,66.9061934 C32.2171551,65.9812492 33.3709247,65.6240801 34.3299919,66.0878385 Z"></path>
                    </g>
                </g>
            </g>
        </g>
    </g>
</svg>